<svg xmlns="http://www.w3.org/2000/svg" xmlns:xlink="http://www.w3.org/1999/xlink" viewBox="0,0,256,256" width="48px" height="48px"><g fill="none" fill-rule="nonzero" stroke="none" stroke-width="none" stroke-linecap="butt" stroke-linejoin="none" stroke-miterlimit="10" stroke-dasharray="" stroke-dashoffset="0" font-family="none" font-weight="none" font-size="none" text-anchor="none" style="mix-blend-mode: normal"><path transform="scale(5.33333,5.33333)" d="M40,45h-32v-42h22l10,10z" id="strokeMainSVG" fill="#dddddd" stroke="#dddddd" stroke-width="2" stroke-linejoin="round"></path><g transform="scale(5.33333,5.33333)" stroke="none" stroke-width="1" stroke-linejoin="miter"><path d="M40,45h-32v-42h22l10,10z" fill="#919191"></path><path d="M38.5,14h-9.5v-9.5z" fill="#dcdcdc"></path></g></g><g fill="#e8e8e8" fill-rule="nonzero" stroke="none" stroke-width="1" stroke-linecap="butt" stroke-linejoin="miter" stroke-miterlimit="10" stroke-dasharray="" stroke-dashoffset="0" font-family="none" font-weight="none" font-size="none" text-anchor="none" style="mix-blend-mode: normal"><g><path d="M103.13833,134.26333l-0.9,5.04h-11.62l-2.17,12.4h-6.1l5.27,-30.34h19.21l-0.9,5.07h-13.08l-1.38,7.83zM116.96833,121.36333l-5.25,30.34h-6.1l5.25,-30.34zM128.86833,121.36333l-4.4,25.32h12.88l-0.88,5.02h-18.98l5.27,-30.34zM161.00833,133.66333l-0.87,4.89h-11.63l-1.41,8.13h13.66l-0.87,5.02h-19.77l5.27,-30.34h19.73l-0.9,5.07h-13.6l-1.27,7.23z"></path></g></g></svg>